<?xml version='1.0' encoding='utf-8'?>
<svg xmlns="http://www.w3.org/2000/svg" width="91.44mm" height="91.44mm" version="1.1" style="shape-rendering:geometricPrecision; text-rendering:geometricPrecision; image-rendering:optimizeQuality; fill-rule:evenodd; clip-rule:evenodd" viewBox="0 0 170.49 170.49"> <defs> <style type="text/css">  .fil0 {fill:#F0F0F0} .fil1 {fill:#011627;fill-rule:nonzero}  </style> </defs> <g id="Camada_x0020_1"> <metadata id="CorelCorpID_0Corel-Layer"/> <polygon class="fil0" points="-0,170.49 170.49,170.49 170.49,0 -0,0 "/> <path class="fil1" d="M85.25 48.24c10.22,0 19.47,4.14 26.17,10.84 6.7,6.7 10.84,15.95 10.84,26.17 0,10.22 -4.14,19.47 -10.84,26.17 -6.7,6.7 -15.95,10.84 -26.17,10.84 -10.22,0 -19.47,-4.14 -26.17,-10.84 -6.7,-6.7 -10.84,-15.95 -10.84,-26.17 0,-10.22 4.14,-19.47 10.84,-26.17 6.7,-6.7 15.95,-10.84 26.17,-10.84zm-13.91 38.58c-0.87,0 -1.58,-0.71 -1.58,-1.58 0,-0.87 0.71,-1.58 1.58,-1.58l12.33 0 0 -12.33c0,-0.87 0.71,-1.58 1.58,-1.58 0.87,0 1.58,0.71 1.58,1.58l0 12.33 12.33 0c0.87,0 1.58,0.71 1.58,1.58 0,0.87 -0.71,1.58 -1.58,1.58l-12.33 0 0 12.33c0,0.87 -0.71,1.58 -1.58,1.58 -0.87,0 -1.58,-0.71 -1.58,-1.58l0 -12.33 -12.33 0zm37.84 -25.51c-6.13,-6.12 -14.59,-9.91 -23.93,-9.91 -9.35,0 -17.81,3.79 -23.93,9.91 -6.13,6.13 -9.91,14.59 -9.91,23.93 0,9.35 3.79,17.81 9.91,23.93 6.13,6.13 14.59,9.91 23.93,9.91 9.35,0 17.81,-3.79 23.93,-9.91 6.12,-6.12 9.91,-14.59 9.91,-23.93 0,-9.35 -3.79,-17.81 -9.91,-23.93z"/> </g> </svg>